# AST/ASF file generated using VICON BodyLanguage
# -----------------------------------------------
:version 1.10
:name VICON
:units
  mass 1.0
  length 0.45
  angle deg
:documentation
   .ast/.asf automatically generated from VICON data using
   VICON BodyBuilder and BodyLanguage model FoxedUp or BRILLIANT.MOD
:root
   order TX TY TZ RX RY RZ
   axis XYZ
   position 0 0 0  
   orientation 0 0 0 
:bonedata
  begin
     id 1 
     name lhipjoint
     direction 0.561001 -0.76473 0.316963 
     length 2.4722 
     axis 0 0 0  XYZ
  end
  begin
     id 2 
     name lfemur
     direction 0.34202 -0.939693 0  
     length 7.59403  
     axis 0 0 20  XYZ
    dof rx ry rz
    limits (-160.0 20.0)
           (-70.0 70.0)
           (-60.0 70.0)
  end
  begin
     id 3 
     name ltibia
     direction 0.34202 -0.939693 0   
     length 7.89655   
     axis 0 0 20   XYZ
    dof rx
    limits (-10.0 170.0)
  end
  begin
     id 4 
     name lfoot
     direction 0.061296 -0.168409 0.98381   
     length 2.73287   
     axis -90 7.62852e-016 20   XYZ
    dof rx rz
    limits (-45.0 90.0)
           (-70.0 20.0)
  end
  begin
     id 5 
     name ltoes
     direction 1.53547e-011 -4.21984e-011 1   
     length 1.37057   
     axis -90 7.62852e-016 20   XYZ
    dof rx
    limits (-90.0 20.0)
  end
  begin
     id 6 
     name rhipjoint
     direction -0.559611 -0.765599 0.317323   
     length 2.46939  
     axis 0 0 0  XYZ 
  end
  begin
     id 7 
     name rfemur
     direction -0.34202 -0.939693 0   
     length 7.53712   
     axis 0 0 -20   XYZ
    dof rx ry rz
    limits (-160.0 20.0)
           (-70.0 70.0)
           (-70.0 60.0)
  end
  begin
     id 8 
     name rtibia
     direction -0.34202 -0.939693 0   
     length 8.12549   
     axis 0 0 -20   XYZ
    dof rx
    limits (-10.0 170.0)
 end
 begin
     id 9 
     name rfoot
     direction -0.066984 -0.184037 0.980634   
     length 2.67541  
     axis -90 -7.62852e-016 -20   XYZ
    dof rx rz
    limits (-45.0 90.0)
           (-20.0 70.0)
  end
  begin
     id 10 
     name rtoes
     direction -1.53549e-011 -4.21786e-011 1   
     length 1.34085   
     axis -90 -7.62852e-016 -20   XYZ
    dof rx
    limits (-90.0 20.0)
  end
  begin
     id 11 
     name lowerback
     direction -0.0522728 0.992594 -0.109658   
     length 2.05633   
     axis 0 0 0   XYZ
    dof rx ry rz
    limits (-20.0 45.0)
           (-30.0 30.0)
           (-30.0 30.0)
  end
  begin
     id 12 
     name upperback
     direction 0.00589338 0.999977 0.00335704   
     length 2.05845   
     axis 0 0 0   XYZ
    dof rx ry rz
    limits (-20.0 45.0)
           (-30.0 30.0)
           (-30.0 30.0)
  end
  begin
     id 13 
     name thorax
     direction 0.0292928 0.998059 0.0549487   
     length 2.09281   
     axis 0 0 0   XYZ
    dof rx ry rz
    limits (-20.0 45.0)
           (-30.0 30.0)
           (-30.0 30.0)
  end
  begin
     id 14 
     name lowerneck
     direction 0.0356368 0.980775 0.191858   
     length 1.84767   
     axis 0 0 0   XYZ
    dof rx ry rz
    limits (-20.0 45.0)
           (-30.0 30.0)
           (-30.0 30.0)
  end
  begin
     id 15 
     name upperneck
     direction -0.0227605 0.98931 -0.14404   
     length 1.89582   
     axis 0 0 0   XYZ
    dof rx ry rz
    limits (-20.0 45.0)
           (-30.0 30.0)
           (-30.0 30.0)
  end
  begin
     id 16
     name head
     direction -0.00932985 0.997511 -0.0698904  
     length 1.90213  
     axis 0 0 0   XYZ
    dof rx ry rz
    limits (-20.0 45.0)
           (-30.0 30.0)
           (-30.0 30.0)
  end
  begin
     id 17 
     name lclavicle
     direction 0.873442 0.479511 0.0846686  
     length 3.41193  
     axis 0 0 0   XYZ
    dof ry rz
    limits (-20.0 10.0)
           (0.0 20.0)
  end
  begin
     id 18 
     name lhumerus
     direction 1 -4.4897e-011 -5.62117e-018   
     length 5.59864   
     axis 180 -30 -90   XYZ
    dof rx ry rz
    limits (-60.0 90.0)
           (-90.0 90.0)
           (-90.0 90.0)
  end
  begin
     id 19
     name lradius
     direction 1 -4.48966e-011 -6.26295e-027   
     length 3.59542   
     axis 180 -30 -90   XYZ
    dof rx
    limits (-10.0 170.0)
  end
  begin
     id 20
     name lwrist
     direction 1 -4.48947e-011 -1.74096e-026   
     length 1.79771   
     axis 1.04567e-014 90 90   XYZ
    dof ry
    limits (-180.0 0.0)
 end
  begin
     id 21 
     name lhand
     direction 1 -4.49085e-011 -3.48469e-026   
     length 0.572014   
     axis 2.22196e-014 90 90   XYZ
    dof rx rz
    limits (-90.0 90.0)
           (-45.0 45.0)
  end
  begin
     id 22 
     name lfingers
     direction 1 -4.48884e-011 -6.96135e-026   
     length 0.461173   
     axis 4.44383e-014 90 90   XYZ
    dof rx
    limits (0.0 90.0)
  end
  begin
     id 23
     name lthumb
     direction 0.707107 -6.34976e-011 0.707107   
     length 0.662154   
     axis -90 45 -5.4397e-014   XYZ
    dof rx rz
    limits (-45.0 45.0)
           (-45.0 45.0)
  end
  begin
     id 24 
     name rclavicle
     direction -0.890242 0.443271 0.104786   
     length 3.46753  
     axis 0 0 0   XYZ 
    dof ry rz
    limits (-10.0 20.0)
           (-20.0 0.0)
  end
  begin
     id 25 
     name rhumerus
     direction -1 -4.48963e-011 -5.41723e-018  
     length 5.8094   
     axis 180 30 90   XYZ
    dof rx ry rz
    limits (-90.0 60.0)
           (-90.0 90.0)
           (-90.0 90.0)
  end
  begin
     id 26 
     name rradius
     direction -1 -4.48958e-011 -6.51059e-027   
     length 3.66953   
     axis 180 30 90   XYZ
    dof rx
    limits (-10.0 170.0)
  end
  begin
     id 27 
     name rwrist
     direction -1 -4.48975e-011 -1.74124e-026   
     length 1.83476   
     axis 1.04567e-014 -90 -90   XYZ
    dof ry
    limits (-180.0 0.0)
  end
  begin
     id 28
     name rhand
     direction -1 -4.49013e-011 -3.48326e-026   
     length 0.57843   
     axis 2.22196e-014 -90 -90   XYZ
    dof rx rz
    limits (-90.0 90.0)
           (-45.0 45.0)
  end
  begin
     id 29
     name rfingers
     direction -1 -4.49023e-011 -6.9669e-026   
     length 0.466345   
     axis 4.44383e-014 -90 -90   XYZ
    dof rx
    limits (0.0 90.0)
  end
  begin
     id 30
     name rthumb
     direction -0.707107 -6.34926e-011 0.707107   
     length 0.669581   
     axis -90 -45 5.4397e-014   XYZ
    dof rx rz
    limits (-45.0 45.0)
           (-45.0 45.0)
  end
:hierarchy
  begin
    root lhipjoint rhipjoint lowerback
    lhipjoint lfemur
    lfemur ltibia
    ltibia lfoot
    lfoot ltoes
    rhipjoint rfemur
    rfemur rtibia
    rtibia rfoot
    rfoot rtoes
    lowerback upperback
    upperback thorax
    thorax lowerneck lclavicle rclavicle
    lowerneck upperneck
    upperneck head
    lclavicle lhumerus
    lhumerus lradius
    lradius lwrist
    lwrist lhand lthumb
    lhand lfingers
    rclavicle rhumerus
    rhumerus rradius
    rradius rwrist
    rwrist rhand rthumb
    rhand rfingers
  end

#!OML:ASF H:\SkateBoarding\Project 1\Capture day 1\Session 1\Skater.ASF
:FULLY-SPECIFIED
:DEGREES
1
root 6.85752 19.3983 -36.3815 6.56116 48.6626 -0.241637
lowerback 10.8529 -2.99766 -3.98795
upperback -0.935519 -4.46373 0.731123
thorax -6.7122 -2.02355 3.73523
lowerneck -13.9776 -5.65643 -1.32983
upperneck 32.6253 -9.13332 4.55555
head 13.6682 -3.40988 0.625419
rclavicle 2.14687e-014 1.07344e-014
rhumerus -31.6042 2.91842 -82.8791
rradius 44.464
rwrist -19.0609
rhand -36.3651 -3.9111
rfingers 7.12502
rthumb -9.46209 -33.6787
lclavicle 2.14687e-014 1.07344e-014
lhumerus -29.0926 -13.8539 93.4633
lradius 46.3288
lwrist 26.8256
lhand -23.5445 22.3705
lfingers 7.12502
lthumb 2.91728 52.3303
rfemur -30.1659 -3.49488 21.3479
rtibia 48.4687
rfoot -37.412 -3.87852
rtoes -16.5932
lfemur -5.44789 -0.71573 -16.7643
ltibia 32.5668
lfoot -37.7879 -10.6038
ltoes 11.1189
2
root 6.85857 19.3927 -36.1927 6.3208 48.4803 -0.263785
lowerback 10.8971 -2.99454 -4.22883
upperback -0.884209 -4.49226 0.719237
thorax -6.66311 -2.03119 3.86231
lowerneck -14.0942 -5.61611 -1.35927
upperneck 32.6725 -9.07454 4.5556
head 13.7137 -3.38498 0.63602
rclavicle 9.15403e-014 -1.19271e-015
rhumerus -31.4528 3.49821 -83.1939
rradius 44.7546
rwrist -18.8795
rhand -36.4683 -3.59636
rfingers 7.12502
rthumb -9.56169 -33.3594
lclavicle 9.15403e-014 -1.19271e-015
lhumerus -29.2124 -13.5409 93.2987
lradius 46.338
lwrist 26.6502
lhand -23.4887 22.3764
lfingers 7.12502
lthumb 2.97113 52.3355
rfemur -29.9717 -3.43315 21.325
rtibia 48.5709
rfoot -37.2886 -3.44898
rtoes -15.5292
lfemur -4.88503 -1.88151 -17.0024
ltibia 32.1768
lfoot -39.2724 -9.01493
ltoes 10.1021
3
root 6.8603 19.3872 -36.0098 6.16373 48.2307 -0.372214
lowerback 10.8077 -2.9726 -4.33975
upperback -0.859509 -4.47337 0.712169
thorax -6.58023 -2.02151 3.90644
lowerneck -14.2645 -5.58652 -1.41096
upperneck 32.7372 -9.03463 4.57781
head 13.7823 -3.3661 0.65451
rclavicle 7.35503e-015 -1.63003e-014
rhumerus -31.2272 3.93814 -83.4462
rradius 45.0154
rwrist -18.8475
rhand -36.474 -3.28719
rfingers 7.12502
rthumb -9.56712 -33.05
lclavicle 7.35503e-015 -1.63003e-014
lhumerus -29.3152 -13.2275 93.1384
lradius 46.32
lwrist 26.4398
lhand -23.4546 22.3659
lfingers 7.12502
lthumb 3.0041 52.3245
rfemur -30.0092 -3.53442 21.4399
rtibia 48.7485
rfoot -36.971 -3.36478
rtoes -15.9532
lfemur -4.63979 -2.84543 -17.1766
ltibia 32.0753
lfoot -40.3806 -8.49633
ltoes 10.261
4
root 6.86458 19.3842 -35.8375 6.22265 47.9231 -0.327138
lowerback 10.6594 -2.95506 -4.40655
upperback -0.861967 -4.45628 0.648867
thorax -6.50064 -2.01488 3.86406
lowerneck -14.4408 -5.61036 -1.45025
upperneck 32.8436 -9.0859 4.61642
head 13.8754 -3.38127 0.662383
rclavicle -6.60462e-014 -1.07344e-014
rhumerus -30.9806 4.31192 -83.7205
rradius 45.2667
rwrist -18.7893
rhand -36.4925 -3.03866
rfingers 7.12502
rthumb -9.58506 -32.8006
lclavicle -6.60462e-014 -1.07344e-014
lhumerus -29.4003 -12.9275 92.9471
lradius 46.3044
lwrist 26.2232
lhand -23.4016 22.3247
lfingers 7.12502
lthumb 3.05525 52.2826
rfemur -30.1976 -3.81019 21.4806
rtibia 48.8957
rfoot -36.3905 -3.27057
rtoes -16.1467
lfemur -4.57994 -3.60697 -17.4675
ltibia 32.1203
lfoot -41.3937 -7.65778
ltoes 9.79671
5
root 6.86616 19.3804 -35.6438 5.91949 47.2867 -0.404921
lowerback 10.6055 -2.80868 -4.6868
upperback -0.743066 -4.29168 0.631451
thorax -6.34056 -1.93217 3.9694
lowerneck -14.5926 -5.58769 -1.53496
upperneck 32.8262 -9.06699 4.71175
head 13.9118 -3.36949 0.712466
rclavicle -4.47762e-014 -3.53837e-014
rhumerus -30.7272 4.67828 -84.0189
rradius 45.4428
rwrist -18.5875
rhand -36.559 -2.74478
rfingers 7.12502
rthumb -9.64916 -32.5038
lclavicle -4.47762e-014 -3.53837e-014
lhumerus -29.494 -12.6315 92.7134
lradius 46.2529
lwrist 26.012
lhand -23.3447 22.2505
lfingers 7.12502
lthumb 3.11019 52.2075
rfemur -29.9431 -3.69412 21.6588
rtibia 48.9783
rfoot -36.0482 -2.97199
rtoes -16.2816
lfemur -4.17213 -3.65295 -17.5471
ltibia 32.4087
lfoot -42.3116 -6.37975
ltoes 8.19424
6
root 6.86867 19.3783 -35.4619 5.71011 46.8391 -0.523191
lowerback 10.5589 -2.72622 -4.74805
upperback -0.686349 -4.18693 0.607072
thorax -6.26175 -1.88284 3.95734
lowerneck -14.7478 -5.53964 -1.60413
upperneck 32.8191 -9.00004 4.76551
head 13.9474 -3.33994 0.751588
rclavicle -1.8487e-014 -1.55052e-014
rhumerus -30.4853 4.98001 -84.3014
rradius 45.5939
rwrist -18.4982
rhand -36.7817 -2.6065
rfingers 7.12502
rthumb -9.86408 -32.3554
lclavicle -1.8487e-014 -1.55052e-014
lhumerus -29.624 -12.3989 92.4896
lradius 46.1987
lwrist 25.8128
lhand -23.3083 22.2218
lfingers 7.12502
lthumb 3.14535 52.1784
rfemur -29.7872 -3.76569 21.8549
rtibia 48.989
rfoot -35.6535 -2.71821
rtoes -16.3714
lfemur -4.12343 -3.90441 -17.5708
ltibia 32.9536
lfoot -43.1119 -4.67946
ltoes 5.86345
